<svg width="14" height="15" viewBox="0 0 14 15" fill="none" xmlns="http://www.w3.org/2000/svg">
<path d="M6.91711 3C7.20044 3 7.43811 2.904 7.63011 2.712C7.82211 2.52 7.91778 2.28267 7.91711 2C7.91711 1.71667 7.82111 1.47933 7.62911 1.288C7.43711 1.09667 7.19978 1.00067 6.91711 1C6.63378 1 6.39644 1.096 6.20511 1.288C6.01378 1.48 5.91778 1.71733 5.91711 2C5.91711 2.28333 6.01311 2.521 6.20511 2.713C6.39711 2.905 6.63444 3.00067 6.91711 3ZM8.62711 3H10.9731C11.3831 3 11.7364 3.13133 12.0331 3.394C12.3291 3.65667 12.5058 3.99133 12.5631 4.398L13.8151 13.168C13.8858 13.652 13.7604 14.0787 13.4391 14.448C13.1178 14.816 12.7064 15 12.2051 15H1.62911C1.12778 15 0.716442 14.8157 0.395109 14.447C0.0737755 14.0783 -0.0515578 13.6517 0.0191088 13.167L1.27111 4.398C1.32844 3.99133 1.50511 3.65667 1.80111 3.394C2.09844 3.13133 2.45211 3 2.86211 3H5.20811C5.12011 2.85867 5.04978 2.70267 4.99711 2.532C4.94378 2.36067 4.91711 2.18333 4.91711 2C4.91711 1.436 5.10944 0.961667 5.49411 0.577C5.87877 0.192333 6.35311 0 6.91711 0C7.48111 0 7.95544 0.192333 8.34011 0.577C8.72478 0.961667 8.91711 1.436 8.91711 2C8.91711 2.18333 8.89077 2.36067 8.83811 2.532C8.78544 2.70267 8.71511 2.85867 8.62711 3Z" fill="black"/>
</svg>
