<svg width="21" height="21" viewBox="0 0 21 21" fill="none" xmlns="http://www.w3.org/2000/svg">
<path d="M15.6267 14.0129L19 17.3861L17.8861 18.5L14.5129 15.1267C13.3 16.0971 11.7618 16.6776 10.0888 16.6776C6.17579 16.6776 3 13.5018 3 9.58881C3 5.67579 6.17579 2.5 10.0888 2.5C14.0018 2.5 17.1776 5.67579 17.1776 9.58881C17.1776 11.2618 16.5971 12.8 15.6267 14.0129ZM14.0465 13.4284C15.0096 12.4358 15.6023 11.0819 15.6023 9.58881C15.6023 6.54259 13.135 4.07529 10.0888 4.07529C7.04259 4.07529 4.57529 6.54259 4.57529 9.58881C4.57529 12.635 7.04259 15.1023 10.0888 15.1023C11.5819 15.1023 12.9358 14.5096 13.9284 13.5465L14.0465 13.4284Z" fill="#262522"/>
</svg>
